<svg viewBox="0 0 1024 1068.42" xmlns="http://www.w3.org/2000/svg"><path d="M509.207 21.333h245.807v35.334c0 87.275 58.83 160.81 138.998 183.11l1.336.318h35.56v245.807H896c-50.63-.12-99.075-9.326-143.84-26.07l2.854.935v254.138c0 189.2-153.376 342.575-342.575 342.575S69.863 904.106 69.863 714.907c0-189.2 153.376-342.575 342.575-342.575h34.908v245.156h-35.14c-53.6 0-97.048 43.45-97.048 97.046s43.45 97.047 97.047 97.047c53.516 0 96.914-43.318 97.047-96.802v-.013zM687.43 91.15H579.026v623.71c-.224 91.86-74.742 166.24-166.632 166.24-92.03 0-166.633-74.604-166.633-166.633 0-79.663 55.903-146.27 130.62-162.73l1.104-.205V444.477C242.614 462.38 139.637 576.66 139.637 714.99c0 150.64 122.117 272.756 272.756 272.756 150.636 0 272.75-122.112 272.756-272.747V350.686l59.81 29.93c33.768 17.058 73.08 28.95 114.617 33.426l1.514.132v-111.71c-92.347-32.11-160.042-112.378-173.507-209.96l-.153-1.355z"/></svg>